Coordinates
version=1
nRows=32
nColumns=12
inDegrees=yes

Units are S.I. units (second, meters, Newtons, ...)
Angles are in degrees

endheader
time	SC_y	SC_z	SC_x	AC_y	AC_z	AC_x	GH_y	GH_z	GH_yy	EL_x	PS_y
       0.0              -26.02           25.6          20.59          61.35         -6.408          12.95         -16.73          74.52          22.86          139.6          126.0
   0.04609              -26.02           25.6           20.6          61.35         -6.408          12.95         -16.73          74.52          22.85          139.6          126.1
   0.09217              -26.02           25.6           20.6          61.35         -6.409          12.94         -16.72          74.51          22.85          139.6          126.1
    0.1383              -26.02          25.59          20.61          61.35         -6.409          12.94         -16.71           74.5          22.84          139.5          126.1
    0.1843              -26.02          25.59          20.62          61.35         -6.409          12.93          -16.7          74.49          22.83          139.5          126.1
    0.2304              -26.03          25.59          20.63          61.35          -6.41          12.93         -16.69          74.48          22.83          139.5          126.1
    0.2765              -26.03          25.59          20.64          61.35          -6.41          12.92         -16.68          74.47          22.82          139.5          126.1
    0.3226              -26.03          25.58          20.65          61.35         -6.411          12.92         -16.67          74.46          22.81          139.5          126.1
    0.3687              -26.03          25.58          20.66          61.35         -6.411          12.91         -16.66          74.45          22.81          139.4          126.1
    0.4148              -26.03          25.58          20.67          61.35         -6.412          12.91         -16.64          74.44           22.8          139.4          126.1
    0.4609              -26.03          25.57          20.68          61.35         -6.412           12.9         -16.63          74.42          22.79          139.4          126.1
    0.5069              -26.04          25.57          20.69          61.35         -6.413          12.89         -16.61          74.41          22.78          139.4          126.1
     0.553              -26.04          25.57          20.71          61.35         -6.414          12.89          -16.6           74.4          22.77          139.3          126.1
    0.5991              -26.04          25.56          20.72          61.35         -6.414          12.88         -16.58          74.38          22.75          139.3          126.1
    0.6452              -26.04          25.56          20.74          61.35         -6.415          12.87         -16.56          74.36          22.74          139.3          126.1
    0.6913              -26.05          25.55          20.76          61.35         -6.416          12.86         -16.54          74.34          22.73          139.2          126.1
    0.7374              -26.05          25.55          20.78          61.35         -6.417          12.85         -16.52          74.32          22.71          139.2          126.1
    0.7834              -26.05          25.54           20.8          61.35         -6.418          12.84          -16.5           74.3           22.7          139.1          126.2
    0.8295              -26.06          25.53          20.82          61.35         -6.419          12.82         -16.47          74.27          22.68          139.1          126.2
    0.8756              -26.06          25.53          20.85          61.35          -6.42          12.81         -16.44          74.25          22.66          139.0          126.2
    0.9217              -26.06          25.52          20.88          61.35         -6.422          12.79         -16.41          74.22          22.64          139.0          126.2
    0.9678              -26.07          25.51          20.91          61.35         -6.423          12.78         -16.37          74.18          22.61          138.9          126.2
     1.014              -26.07           25.5          20.94          61.35         -6.425          12.76         -16.33          74.15          22.59          138.8          126.2
      1.06              -26.08          25.49          20.98          61.35         -6.427          12.74         -16.29          74.11          22.56          138.8          126.2
     1.106              -26.09          25.48          21.02          61.35         -6.429          12.71         -16.24          74.06          22.53          138.7          126.3
     1.152              -26.09          25.46          21.07          61.35         -6.431          12.69         -16.19          74.01          22.49          138.6          126.3
     1.198               -26.1          25.45          21.12          61.35         -6.433          12.66         -16.13          73.95          22.45          138.5          126.3
     1.244              -26.11          25.43          21.18          61.35         -6.436          12.63         -16.06          73.89           22.4          138.3          126.3
      1.29              -26.12          25.41          21.24          61.35         -6.439          12.59         -15.99          73.82          22.35          138.2          126.4
     1.336              -26.13          25.39          21.32          61.35         -6.443          12.55          -15.9          73.74           22.3          138.1          126.4
     1.383              -26.14          25.36           21.4          61.35         -6.447           12.5          -15.8          73.65          22.23          137.9          126.5
     1.429              -26.16          25.34           21.5          61.35         -6.452          12.45         -15.69          73.54          22.15          137.7          126.5
